<svg width="20" height="20" viewBox="0 0 20 20" fill="none" xmlns="http://www.w3.org/2000/svg">
    <path d="M17.4473 5.72852L14.2715 2.55273C14.125 2.40625 13.9453 2.29883 13.75 2.24023V2.1875H2.8125C2.4668 2.1875 2.1875 2.4668 2.1875 2.8125V17.1875C2.1875 17.5332 2.4668 17.8125 2.8125 17.8125H17.1875C17.5332 17.8125 17.8125 17.5332 17.8125 17.1875V6.61133C17.8125 6.2793 17.6816 5.96289 17.4473 5.72852ZM7.5 3.59375H12.5V5.625H7.5V3.59375ZM16.4062 16.4062H3.59375V3.59375H6.25V6.25C6.25 6.5957 6.5293 6.875 6.875 6.875H13.125C13.4707 6.875 13.75 6.5957 13.75 6.25V4.01953L16.4062 6.67578V16.4062ZM10 8.63281C8.44727 8.63281 7.1875 9.89258 7.1875 11.4453C7.1875 12.998 8.44727 14.2578 10 14.2578C11.5527 14.2578 12.8125 12.998 12.8125 11.4453C12.8125 9.89258 11.5527 8.63281 10 8.63281ZM10 13.0078C9.13672 13.0078 8.4375 12.3086 8.4375 11.4453C8.4375 10.582 9.13672 9.88281 10 9.88281C10.8633 9.88281 11.5625 10.582 11.5625 11.4453C11.5625 12.3086 10.8633 13.0078 10 13.0078Z"
          fill="white"/>
</svg>
