<svg width="20" height="20" viewBox="0 0 20 20" fill="none" xmlns="http://www.w3.org/2000/svg">
    <path d="M18.4571 8.04687H13.4571C13.3712 8.04687 13.3009 8.11718 13.3009 8.20312V9.14062C13.3009 9.22656 13.3712 9.29687 13.4571 9.29687H18.4571C18.5431 9.29687 18.6134 9.22656 18.6134 9.14062V8.20312C18.6134 8.11718 18.5431 8.04687 18.4571 8.04687ZM15.84 10.7031H13.4571C13.3712 10.7031 13.3009 10.7734 13.3009 10.8594V11.7969C13.3009 11.8828 13.3712 11.9531 13.4571 11.9531H15.84C15.9259 11.9531 15.9962 11.8828 15.9962 11.7969V10.8594C15.9962 10.7734 15.9259 10.7031 15.84 10.7031ZM9.32238 6.29883H8.47667C8.35558 6.29883 8.25792 6.39648 8.25792 6.51758V11.3613C8.25792 11.4316 8.29113 11.4961 8.34777 11.5371L11.256 13.6582C11.3536 13.7285 11.4903 13.709 11.5607 13.6113L12.0626 12.9258V12.9238C12.1329 12.8262 12.1114 12.6894 12.0138 12.6191L9.53918 10.8301V6.51758C9.54113 6.39648 9.44152 6.29883 9.32238 6.29883Z"
          fill="white"/>
    <path d="M15.7188 13.162H14.5899C14.4805 13.162 14.377 13.2187 14.3184 13.3124C14.0703 13.705 13.7813 14.0683 13.4492 14.4003C12.877 14.9726 12.2109 15.4218 11.4707 15.7343C10.7031 16.0585 9.88868 16.2226 9.04884 16.2226C8.20704 16.2226 7.39259 16.0585 6.62697 15.7343C5.88673 15.4218 5.22072 14.9726 4.64845 14.4003C4.07619 13.828 3.62697 13.162 3.31447 12.4218C2.99025 11.6562 2.82619 10.8417 2.82619 9.99992C2.82619 9.15813 2.99025 8.34563 3.31447 7.57805C3.62697 6.83782 4.07619 6.1718 4.64845 5.59953C5.22072 5.02727 5.88673 4.57805 6.62697 4.26555C7.39259 3.94133 8.209 3.77727 9.04884 3.77727C9.89064 3.77727 10.7051 3.94133 11.4707 4.26555C12.2109 4.57805 12.877 5.02727 13.4492 5.59953C13.7813 5.93157 14.0703 6.29485 14.3184 6.68742C14.377 6.78117 14.4805 6.83782 14.5899 6.83782H15.7188C15.8535 6.83782 15.9395 6.69719 15.8789 6.57805C14.6055 4.04485 12.0234 2.39836 9.14064 2.36516C4.91993 2.31242 1.41408 5.7675 1.40626 9.9843C1.39845 14.2089 4.82228 17.6366 9.04689 17.6366C11.9668 17.6366 14.5918 15.9843 15.8789 13.4218C15.9395 13.3027 15.8516 13.162 15.7188 13.162Z"
          fill="white"/>
</svg>
